:SAMPLES-PER-SECOND 30
:FULLY-SPECIFIED
:DEGREES
275
root  -8.6593 39.9751 43.1807 3.54169 -10.2514 0.776672
RightUpLeg  -11.0969 -0.284112 1.80597
RightLeg  13.6558 10.9229 -0.0143411
RightFoot  -7.29985 0.062847 -0.858293
RightToes  -5.82073e-011 -3.18055e-015 -2.98177e-016
Spine  7.76028 0.031639 6.701
Spine1  -6.03532 1.01309 -4.73768
HEad  -25.3133 3.2442 0.63177
LeftShoulder1  -3.88251e-019 9.70628e-020 -3.87848e-018
LeftArm  -15.482 69.9745 -61.3017
LeftForeArm  -18.9684 -23.2793 0.973923
LeftHand  -1.02102 -5.4883 11.4206
RightShoulder  7.96487 10.7212 37.2883
RightArm  11.3728 -52.2657 -0.333712
RightForeArm  1.96993 9.64458 -4.78545
RightHand  -0.377511 -1.2888 -10.543
LeftUpLeg  -9.27743 -4.31305 -1.04029
LeftLeg  14.5318 4.37682 6.32238
LeftFoot  -7.69435 0.262659 -6.00833
LeftToes  5.79026e-011 9.70705e-012 -3.73859e-011
276
root  -8.70069 39.9522 43.1051 3.28701 -9.36715 0.204902
RightUpLeg  -9.8932 0.124648 2.5304
RightLeg  11.9179 9.64747 -0.226297
RightFoot  -6.57144 0.0728781 -0.994955
RightToes  -5.82073e-011 -3.18055e-015 -2.98177e-016
Spine  7.52292 0.344857 6.50154
Spine1  -4.14051 1.19124 -2.97356
HEad  -25.6855 2.7983 0.663155
LeftShoulder1  -3.88251e-019 9.70628e-020 -3.87848e-018
LeftArm  -23.0866 75.1637 -67.7613
LeftForeArm  -21.4371 -23.9462 1.56968
LeftHand  -0.511161 -3.39106 7.29449
RightShoulder  8.01917 10.6897 37.6242
RightArm  17.2293 -58.354 -8.17208
RightForeArm  -3.87009 12.6854 -6.08631
RightHand  -0.298146 -1.90203 -9.01522
LeftUpLeg  -8.43215 -3.36108 -0.488733
LeftLeg  13.1489 3.64002 5.65551
LeftFoot  -7.61535 0.194398 -4.48685
LeftToes  5.79026e-011 9.70705e-012 -3.73859e-011
277
root  -8.71319 39.9086 42.9663 2.43406 -8.32667 -1.20907
RightUpLeg  -7.85147 0.81634 3.95265
RightLeg  10.1746 8.16912 -0.149385
RightFoot  -5.90911 0.0730564 -0.969032
RightToes  -5.82073e-011 -3.18055e-015 -2.98177e-016
Spine  8.13241 0.0970743 6.54071
Spine1  -2.13258 0.698767 -0.614533
HEad  -27.1364 3.2794 0.082794
LeftShoulder1  -3.88251e-019 9.70628e-020 -3.87848e-018
LeftArm  -39.0674 78.6662 -80.5164
LeftForeArm  -21.875 -22.3517 0.864418
LeftHand  -0.304035 -1.5027 5.63769
RightShoulder  8.01457 10.6419 37.7096
RightArm  18.0528 -62.2076 -12.1237
RightForeArm  -9.62886 13.0729 -7.99035
RightHand  -0.0665894 -4.23896 -5.63894
LeftUpLeg  -7.89432 -4.87498 1.07636
LeftLeg  13.4466 3.90262 5.85831
LeftFoot  -7.7495 0.163976 -3.96463
LeftToes  5.79026e-011 9.70705e-012 -3.73859e-011
278
root  -8.72198 39.894 42.8222 1.93961 -7.75915 -2.22849
RightUpLeg  -6.74134 1.45048 5.00356
RightLeg  9.17396 7.04486 -0.107234
RightFoot  -5.52528 0.0744716 -0.941987
RightToes  -5.82073e-011 -3.18055e-015 -2.98177e-016
Spine  7.46705 -0.270699 6.10537
Spine1  0.665167 -0.0416253 1.35669
HEad  -28.6681 4.52228 -0.363828
LeftShoulder1  -3.88251e-019 9.70628e-020 -3.87848e-018
LeftArm  -57.3448 79.0453 -93.656
LeftForeArm  -20.5706 -16.1471 -0.465701
LeftHand  -0.315156 -0.685803 6.56107
RightShoulder  8.24547 10.7708 38.5472
RightArm  14.3497 -63.0826 -10.5251
RightForeArm  -16.0262 10.521 -8.81826
RightHand  0.102904 -7.25891 -7.68073
LeftUpLeg  -8.09778 -7.45917 2.18685
LeftLeg  14.4998 5.58931 6.66685
LeftFoot  -7.90796 0.173399 -4.29434
LeftToes  5.79026e-011 9.70705e-012 -3.73859e-011
279
root  -8.77765 39.9326 42.7249 2.15993 -7.51976 -1.85339
RightUpLeg  -7.3442 1.43346 4.75904
RightLeg  9.36914 6.63559 -0.281729
RightFoot  -5.25332 0.0719955 -0.888855
RightToes  -5.82073e-011 -3.18055e-015 -2.98177e-016
Spine  5.15681 -0.496043 4.18926
Spine1  3.64787 -0.774597 3.04983
HEad  -27.968 5.98598 -0.0840807
LeftShoulder1  -3.88251e-019 9.70628e-020 -3.87848e-018
LeftArm  -66.7681 77.6879 -100.419
LeftForeArm  -24.1713 -7.60461 0.39396
LeftHand  -0.26414 0.901596 7.51492
RightShoulder  8.39409 10.8739 39.0322
RightArm  10.9593 -63.4331 -6.60091
RightForeArm  -22.7259 8.05566 -8.82735
RightHand  0.36692 -8.86205 -13.1402
LeftUpLeg  -8.5179 -7.99484 1.89794
LeftLeg  14.3107 6.0993 6.75125
LeftFoot  -7.2255 0.200351 -4.29944
LeftToes  5.79026e-011 9.70705e-012 -3.73859e-011
280
root  -8.87512 40.0127 42.6681 2.50715 -7.59592 -0.740582
RightUpLeg  -8.16312 1.08081 3.83782
RightLeg  9.54151 7.00567 -0.408528
RightFoot  -5.00757 0.0603283 -0.757867
RightToes  -5.82073e-011 -3.18055e-015 -2.98177e-016
Spine  2.8689 -0.573931 2.01194
Spine1  5.54894 -1.08865 3.57183
HEad  -24.138 6.99263 0.911578
LeftShoulder1  -3.88251e-019 9.70628e-020 -3.87848e-018
LeftArm  -72.7507 77.0967 -103.594
LeftForeArm  -30.2656 -1.61196 1.96116
LeftHand  -0.117068 3.35655 7.74022
RightShoulder  8.21003 10.7731 38.3685
RightArm  9.65277 -65.2186 -4.03902
RightForeArm  -27.1218 8.37833 -8.78638
RightHand  0.436513 -9.0496 -14.5117
LeftUpLeg  -8.08211 -6.44478 0.864218
LeftLeg  12.1713 4.90237 5.85894
LeftFoot  -5.917 0.237815 -4.03987
LeftToes  5.79026e-011 9.70705e-012 -3.73859e-011
281
root  -8.94146 40.0932 42.5832 2.35041 -8.44599 -0.253686
RightUpLeg  -7.98472 1.05655 3.4557
RightLeg  9.02358 7.99877 -0.174099
RightFoot  -4.76279 0.0643938 -0.796229
RightToes  -5.82073e-011 -3.18055e-015 -2.98177e-016
Spine  2.25469 -0.492903 1.4957
Spine1  5.911 -0.775128 2.29733
HEad  -19.6763 7.49385 1.84902
LeftShoulder1  -3.88251e-019 9.70628e-020 -3.87848e-018
LeftArm  -78.1202 77.991 -107.186
LeftForeArm  -37.8089 -0.498353 3.06149
LeftHand  -0.0159841 4.95084 7.77168
RightShoulder  7.97152 10.6298 37.5258
RightArm  10.1232 -66.7388 -3.76924
RightForeArm  -28.1411 10.6393 -8.91959
RightHand  0.272227 -8.8594 -10.0476
LeftUpLeg  -6.70371 -4.6102 0.337493
LeftLeg  9.70052 3.81027 5.16896
LeftFoot  -5.06559 0.289881 -4.32337
LeftToes  5.79026e-011 9.70705e-012 -3.73859e-011
282
root  -8.95693 40.1536 42.4418 1.71756 -9.82644 -0.490858
RightUpLeg  -7.1949 1.33198 3.7013
RightLeg  8.33779 9.08601 0.262527
RightFoot  -4.29728 0.0973199 -1.13421
RightToes  -5.82073e-011 -3.18055e-015 -2.98177e-016
Spine  3.16954 -0.358316 1.93559
Spine1  5.54211 -0.364228 0.811599
HEad  -17.7235 7.99383 1.99093
LeftShoulder1  -3.88251e-019 9.70628e-020 -3.87848e-018
LeftArm  -82.8914 79.1726 -111.507
LeftForeArm  -43.182 -2.65121 3.27643
LeftHand  -0.0169557 4.91049 7.65388
RightShoulder  7.92513 10.5766 37.4164
RightArm  10.1986 -65.7128 -3.52526
RightForeArm  -25.4875 12.753 -8.80492
RightHand  0.101669 -8.24153 -5.03449
LeftUpLeg  -5.16476 -3.37243 0.460298
LeftLeg  8.2012 3.85585 5.09758
LeftFoot  -4.81187 0.345274 -4.94523
LeftToes  5.79026e-011 9.70705e-012 -3.73859e-011
